<svg width="23" height="17" viewBox="0 0 23 17" fill="none" xmlns="http://www.w3.org/2000/svg">
<path d="M0.9 3.15967V3.15955C0.901269 2.10712 1.60617 1.20415 2.63048 0.963532L0.9 3.15967ZM0.9 3.15967C0.9 6.72251 0.9 10.2854 0.901214 13.8482C0.901214 13.8635 0.901025 13.8797 0.90083 13.8964C0.899991 13.9681 0.899024 14.0509 0.912208 14.1305C1.09851 15.3149 2.01946 16.0993 3.2227 16.0993M0.9 3.15967L20.3422 16.0384M20.3422 16.0384L20.342 16.0384C20.1559 16.0806 19.9625 16.0968 19.7761 16.0968C14.2575 16.1005 8.74008 16.1005 3.2227 16.0993M20.3422 16.0384C21.393 15.7978 22.0939 14.8977 22.0951 13.8045V13.8044M20.3422 16.0384L22.0951 13.8044M3.2227 16.0993L3.22273 15.9993M3.2227 16.0993L3.22273 15.9993M3.22273 15.9993C2.06827 15.9993 1.18937 15.2502 1.01093 14.1145L19.776 15.9968C14.2575 16.0005 8.74009 16.0005 3.22273 15.9993ZM22.0951 13.8044C22.0951 12.7685 22.0941 11.7327 22.093 10.6969C22.0905 8.21125 22.088 5.72591 22.1 3.2404C22.1063 1.87993 21.0097 0.889973 19.7656 0.900077L22.0951 13.8044ZM12.9831 8.96676L12.9832 8.96673C13.5508 8.5879 14.1183 8.20873 14.6857 7.82957C16.615 6.54039 18.5441 5.2513 20.4833 3.97605C20.6417 3.8714 20.7413 3.77333 20.801 3.6626C20.8603 3.5527 20.8859 3.41982 20.8767 3.23513L20.8767 3.23501C20.8593 2.87419 20.7519 2.6018 20.5709 2.4197C20.3907 2.23839 20.1253 2.13425 19.7662 2.13366C19.7662 2.13366 19.7662 2.13366 19.7662 2.13366L11.4812 2.13366C8.74251 2.13366 6.00389 2.13366 3.26526 2.13488H3.26521C3.24425 2.13488 3.224 2.13472 3.20424 2.13456C3.14793 2.13412 3.09561 2.13371 3.04213 2.13711L3.041 2.13718L3.041 2.13717C2.55651 2.16249 2.15348 2.56322 2.1293 3.04905C2.1293 3.04907 2.1293 3.04909 2.1293 3.04911L12.9831 8.96676ZM12.9831 8.96676C12.4769 9.30497 11.97 9.47065 11.4677 9.47065C10.9654 9.47065 10.4594 9.305 9.95516 8.96689C7.38404 7.24019 4.81286 5.51346 2.23925 3.78916L2.23892 3.78894M12.9831 8.96676L2.23892 3.78894M2.23892 3.78894C2.1869 3.75438 2.15814 3.72596 2.1419 3.69812C2.12693 3.67247 2.11762 3.63875 2.12182 3.58346M2.23892 3.78894L2.18359 3.87224C2.06827 3.79563 2.01121 3.7178 2.02214 3.57553M2.02214 3.57553L2.1218 3.58377C2.12181 3.58367 2.12182 3.58356 2.12182 3.58346M2.02214 3.57553L2.12185 3.58319C2.12184 3.58328 2.12183 3.58337 2.12182 3.58346M2.02214 3.57553L2.12182 3.58346M19.7651 14.8669L19.7649 14.8669L8.51531 9.29464C8.73707 9.44579 8.95785 9.59627 9.18439 9.73694L9.13154 9.82183C9.13157 9.82185 9.13161 9.82187 9.13164 9.82189C9.18497 9.8551 9.23869 9.88918 9.29288 9.92356C9.55218 10.0881 9.82236 10.2594 10.1132 10.3756C11.3305 10.8679 12.4986 10.7152 13.5898 10.0031C13.8737 9.81802 14.1545 9.62742 14.441 9.43299C14.5467 9.36125 14.6531 9.289 14.7608 9.21631C15.8667 10.3663 16.9728 11.5161 18.0884 12.6759C18.7706 13.3851 19.4564 14.098 20.148 14.817C20.1429 14.8179 20.1378 14.8189 20.1328 14.8198C20.0945 14.827 20.0581 14.8338 20.0242 14.8396C19.9304 14.8559 19.8469 14.8669 19.7651 14.8669ZM2.79698 14.8113C4.62786 12.9268 6.42249 11.0787 8.22682 9.21962L3.25308 14.9669L3.25366 14.8669C3.25365 14.8669 3.25364 14.8669 3.25363 14.8669C3.15813 14.8663 3.06089 14.8542 2.95367 14.8373C2.91829 14.8317 2.88128 14.8255 2.84292 14.819C2.82781 14.8165 2.81249 14.8139 2.79698 14.8113ZM4.26668 11.5959C3.55804 12.3276 2.8477 13.0611 2.13306 13.7993V5.13611C3.82445 6.2864 5.50131 7.42625 7.19193 8.57456C6.21557 9.58338 5.24274 10.588 4.26668 11.5959ZM20.856 13.8C19.4531 12.3662 18.0627 10.9442 16.6659 9.51559C16.3587 9.20149 16.0513 8.88707 15.7434 8.57213L15.9167 8.45546C17.5704 7.34217 19.2045 6.24207 20.856 5.1324V13.8Z" fill="white" stroke="white" stroke-width="0.2"/>
</svg>
