<svg width="97" height="71" viewBox="0 0 97 71" fill="none" xmlns="http://www.w3.org/2000/svg">
<path d="M97 0H25.7214L34.5087 8.74797L35.5928 7.66992L29.4202 1.52499H95.4673V67.317L85.2153 57.1109L84.1313 58.189L97 71V0Z" fill="white"/>
<path fill-rule="evenodd" clip-rule="evenodd" d="M47.0447 23.4392C50.3552 23.4392 52.7615 20.9534 52.7615 17.9187V17.8882C52.7615 14.8534 50.3859 12.3982 47.0754 12.3982C43.7648 12.3982 41.3586 14.8839 41.3586 17.9187V17.9492C41.3586 20.9839 43.7342 23.4392 47.0447 23.4392ZM47.0754 21.2737C45.1749 21.2737 43.8261 19.7487 43.8261 17.9187V17.8882C43.8261 16.0582 45.1442 14.5637 47.0447 14.5637C48.9452 14.5637 50.2939 16.0887 50.2939 17.9187V17.9492C50.2939 19.7792 48.9758 21.2737 47.0754 21.2737Z" fill="white"/>
<path d="M31.7756 23.2562H34.1359V19.1234H39.255V16.9884H34.1359V14.7162H39.9447V12.5812H31.7756V23.2562Z" fill="white"/>
<path d="M64.2811 21.5329C63.1776 22.7072 61.9514 23.4392 59.8824 23.4392C56.7251 23.4392 54.3801 21.0144 54.3801 17.9492V17.9187C54.3801 14.8839 56.6791 12.3982 59.9743 12.3982C61.9974 12.3982 63.2082 13.0692 64.2044 14.0452L62.7024 15.7684C61.8748 15.0212 61.0318 14.5637 59.959 14.5637C58.1505 14.5637 56.8477 16.0582 56.8477 17.8882V17.9187C56.8477 19.7487 58.1198 21.2737 59.959 21.2737C61.1851 21.2737 61.9361 20.7857 62.7791 20.0232L64.2811 21.5329Z" fill="white"/>
<path d="M70.6459 23.4239C73.5273 23.4239 75.3511 21.8379 75.3511 18.6049V12.5812H72.9909V18.6964C72.9909 20.3892 72.1172 21.2584 70.6766 21.2584C69.2359 21.2584 68.3622 20.3587 68.3622 18.6202V12.5812H66.002V18.6812C66.002 21.8227 67.7645 23.4239 70.6459 23.4239Z" fill="white"/>
<path d="M85.5105 20.0994C85.5105 22.2192 83.8859 23.4087 81.5716 23.4087C79.947 23.4087 78.307 22.8444 77.0196 21.7007L78.4143 20.0384C79.3799 20.8314 80.3914 21.3347 81.6175 21.3347C82.5831 21.3347 83.1655 20.9534 83.1655 20.3282V20.2977C83.1655 19.7029 82.7977 19.3979 81.0045 18.9404C78.8434 18.3914 77.4487 17.7967 77.4487 15.6769V15.6464C77.4487 13.7097 79.012 12.4287 81.2037 12.4287C82.767 12.4287 84.1004 12.9167 85.1886 13.7859L83.9625 15.5549C83.0123 14.8992 82.0773 14.5027 81.1731 14.5027C80.2688 14.5027 79.7937 14.9144 79.7937 15.4329V15.4634C79.7937 16.1649 80.2535 16.3937 82.108 16.8664C84.2844 17.4307 85.5105 18.2084 85.5105 20.0689V20.0994Z" fill="white"/>
<path fill-rule="evenodd" clip-rule="evenodd" d="M67.6397 38.1554C70.9503 38.1554 73.3565 35.6696 73.3565 32.6349V32.6044C73.3565 29.5696 70.9809 27.1144 67.6704 27.1144C64.3599 27.1144 61.9536 29.6001 61.9536 32.6349V32.6654C61.9536 35.7001 64.3292 38.1554 67.6397 38.1554ZM67.6704 35.9899C65.7699 35.9899 64.4212 34.4649 64.4212 32.6349V32.6044C64.4212 30.7744 65.7393 29.2799 67.6397 29.2799C69.5402 29.2799 70.889 30.8049 70.889 32.6349V32.6654C70.889 34.4954 69.5709 35.9899 67.6704 35.9899Z" fill="white"/>
<path d="M77.7799 37.9724H75.4503V27.2974H77.6267L82.6538 33.8701V27.2974H84.9834V37.9724H82.9756L77.7799 31.1861V37.9724Z" fill="white"/>
<path fill-rule="evenodd" clip-rule="evenodd" d="M0 52.6886H2.36029V49.2726H4.2148L6.51378 52.6886H9.27256L6.65172 48.8761C8.01578 48.3728 8.9507 47.2901 8.9507 45.5668V45.5363C8.9507 44.5298 8.62884 43.6911 8.03111 43.0963C7.32609 42.3948 6.26856 42.0136 4.90449 42.0136H0V52.6886ZM2.36029 47.1986V44.1333H4.70525C5.85474 44.1333 6.55976 44.6518 6.55976 45.6583V45.6888C6.55976 46.5886 5.90072 47.1986 4.75123 47.1986H2.36029Z" fill="white"/>
<path d="M19.2449 52.6886H11.0758V42.0136H19.1682V44.1028H13.4208V46.2683H18.4785V48.3576H13.4208V50.5993H19.2449V52.6886Z" fill="white"/>
<path d="M25.1597 52.8411C27.474 52.8411 29.0986 51.6516 29.0986 49.5318V49.5013C29.0986 47.6408 27.8725 46.8631 25.6961 46.2988C23.8416 45.8261 23.3818 45.5973 23.3818 44.8958V44.8653C23.3818 44.3468 23.857 43.9351 24.7612 43.9351C25.6655 43.9351 26.6004 44.3316 27.5507 44.9873L28.7768 43.2183C27.6886 42.3491 26.3552 41.8611 24.7919 41.8611C22.6002 41.8611 21.0369 43.1421 21.0369 45.0788V45.1093C21.0369 47.2291 22.4316 47.8238 24.5926 48.3728C26.3858 48.8303 26.7537 49.1353 26.7537 49.7301V49.7606C26.7537 50.3858 26.1713 50.7671 25.2057 50.7671C23.9796 50.7671 22.968 50.2638 22.0024 49.4708L20.6077 51.1331C21.8952 52.2768 23.5351 52.8411 25.1597 52.8411Z" fill="white"/>
<path d="M39.3161 52.6886H31.147V42.0136H39.2394V44.1028H33.492V46.2683H38.5497V48.3576H33.492V50.5993H39.3161V52.6886Z" fill="white"/>
<path fill-rule="evenodd" clip-rule="evenodd" d="M40.495 52.6886H42.9013L43.8822 50.2943H48.4188L49.3997 52.6886H51.8673L47.2693 41.9373H45.093L40.495 52.6886ZM44.7251 48.2203L46.1505 44.7586L47.5759 48.2203H44.7251Z" fill="white"/>
<path fill-rule="evenodd" clip-rule="evenodd" d="M55.8834 52.6886H53.5232V42.0136H58.4277C59.7917 42.0136 60.8492 42.3948 61.5543 43.0963C62.152 43.6911 62.4739 44.5298 62.4739 45.5363V45.5668C62.4739 47.2901 61.5389 48.3728 60.1749 48.8761L62.7957 52.6886H60.0369L57.738 49.2726H55.8834V52.6886ZM55.8834 44.1333V47.1986H58.2744C59.4239 47.1986 60.0829 46.5886 60.0829 45.6888V45.6583C60.0829 44.6518 59.3779 44.1333 58.2284 44.1333H55.8834Z" fill="white"/>
<path d="M69.6261 52.8716C71.6952 52.8716 72.9213 52.1396 74.0248 50.9653L72.5228 49.4556C71.6798 50.2181 70.9288 50.7061 69.7027 50.7061C67.8635 50.7061 66.5914 49.1811 66.5914 47.3511V47.3206C66.5914 45.4906 67.8942 43.9961 69.7027 43.9961C70.7756 43.9961 71.6185 44.4536 72.4462 45.2008L73.9482 43.4776C72.9519 42.5016 71.7411 41.8306 69.718 41.8306C66.4228 41.8306 64.1239 44.3163 64.1239 47.3511V47.3816C64.1239 50.4468 66.4688 52.8716 69.6261 52.8716Z" fill="white"/>
<path d="M78.2746 52.6886H75.9143V42.0136H78.2746V46.2378H82.6273V42.0136H84.9876V52.6886H82.6273V48.4033H78.2746V52.6886Z" fill="white"/>
</svg>
