<svg width="11" height="14" viewBox="0 0 11 14" fill="none" xmlns="http://www.w3.org/2000/svg">
<path d="M10.901 4.2874C10.5913 2.85605 9.82805 1.70606 8.57711 0.886054C7.71706 0.322389 6.77145 -0.0151487 5.71401 0.00609491C5.40285 0.012232 5.0883 -0.0179812 4.78103 0.0178969C4.22241 0.0825721 3.6847 0.235526 3.17227 0.470151C2.27819 0.879917 1.546 1.4738 0.98301 2.26217C0.458424 2.99767 0.141436 3.81013 0.0320457 4.7C-0.0340745 5.241 -0.000528266 5.77068 0.15748 6.29516C0.419043 7.16143 0.849311 7.95075 1.32674 8.71647C2.17269 10.0728 3.15331 11.3351 4.20005 12.5493C4.62011 13.037 5.04989 13.5166 5.47578 14C5.50933 13.9839 5.51808 13.9821 5.52294 13.9769C5.68532 13.8022 5.84965 13.6285 6.00912 13.451C7.35243 11.9545 8.61795 10.4009 9.68122 8.70089C10.1047 8.02345 10.48 7.32147 10.7532 6.56991C11.0265 5.8193 11.0683 5.05925 10.901 4.2874ZM5.48113 7.45554C4.19324 7.44751 3.15477 6.42404 3.15963 5.17161C3.16449 3.91257 4.22728 2.89476 5.52586 2.90515C6.80256 2.91553 7.8493 3.94797 7.83909 5.18766C7.84104 6.4467 6.7943 7.46356 5.48113 7.45554Z" fill="white"/>
</svg>
