<svg width="15" height="15" viewBox="0 0 15 15" fill="none" xmlns="http://www.w3.org/2000/svg">
<path d="M14.9991 11.6282C14.9556 12.9029 14.4281 13.8384 13.3843 14.4632C12.5845 14.9419 11.7523 15.1131 10.8593 14.9255C7.71874 14.2669 5.052 12.7197 2.98968 10.0461C2.10785 8.90447 1.25336 7.74214 0.618565 6.41297C0.219668 5.57883 -0.00812902 4.61058 0.00199528 3.65868C-0.0374895 2.36005 0.511248 1.24896 1.45281 0.345036C1.61682 0.188022 1.86183 0.104063 2.08355 0.0495444C2.30932 -0.00606469 2.55231 0.0201043 2.78618 0.00374868C3.30049 -0.0344144 3.62751 0.219643 3.81481 0.727757C4.12461 1.56626 4.44656 2.40039 4.76345 3.23671C4.77662 3.27051 4.78168 3.30867 4.7999 3.33811C5.24841 4.02832 4.92342 4.58223 4.52351 5.1176C4.33418 5.37166 4.13474 5.617 3.93427 5.86124C3.76621 6.06623 3.75204 6.28758 3.87859 6.5111C4.58527 7.75631 5.42356 8.88049 6.50585 9.77568C7.29048 10.4245 8.15105 10.9293 9.06628 11.3284C9.30724 11.4331 9.53605 11.3862 9.70614 11.1659C10.0868 10.672 10.4655 10.1748 10.831 9.66774C11.0942 9.30246 11.244 9.21523 11.649 9.39296C12.1917 9.63175 12.7171 9.91416 13.2486 10.1813C13.6971 10.4081 14.1406 10.6458 14.5901 10.8682C14.8979 11.0198 15.0113 11.2728 14.9991 11.6282Z" fill="white"/>
</svg>
